<svg width="424" height="36" viewBox="0 0 424 36" fill="none" xmlns="http://www.w3.org/2000/svg">
<g clip-path="url(#clip0_1_1520)">
<path d="M227.5 1.13197e-05H236.4L245.15 23.2H245.25L254.15 1.13197e-05H262.5L247.9 35.4H241.65L227.5 1.13197e-05ZM274.1 1.13197e-05H281.9V35.4H274.1V1.13197e-05ZM296.3 1.13197e-05H320.35V7.20001H304.1V13.8H319.45V21H304.1V28.2H321.25V35.4H296.3V1.13197e-05ZM351.3 1.13197e-05H363C365.721 0.00481087 368.431 0.340612 371.07 1.00001C373.474 1.54622 375.745 2.56608 377.75 4.00001C379.677 5.45537 381.227 7.35175 382.27 9.53001C383.477 12.1163 384.069 14.9468 384 17.8C384.051 20.4188 383.493 23.0137 382.37 25.38C381.328 27.508 379.837 29.3845 378 30.88C376.11 32.3868 373.957 33.5295 371.65 34.25C369.177 35.0346 366.595 35.4227 364 35.4H351.29L351.3 1.13197e-05ZM359.11 28.2H363.11C364.792 28.2123 366.47 28.0277 368.11 27.65C369.554 27.319 370.915 26.6962 372.11 25.82C373.264 24.9464 374.182 23.7984 374.78 22.48C375.482 20.8804 375.823 19.1462 375.78 17.4C375.81 15.8354 375.467 14.2861 374.78 12.88C374.164 11.6317 373.267 10.5431 372.16 9.70001C370.995 8.838 369.679 8.20047 368.28 7.82001C366.759 7.40296 365.188 7.19439 363.61 7.20001H359.01L359.11 28.2ZM395.24 1.13197e-05H408.44C409.989 0.00238978 411.536 0.109299 413.07 0.320011C414.524 0.513156 415.934 0.952791 417.24 1.62001C418.461 2.25264 419.495 3.19382 420.24 4.35001C421.07 5.75421 421.47 7.37091 421.39 9.00001C421.464 10.8149 420.87 12.5939 419.72 14C418.546 15.3469 417.007 16.3261 415.29 16.82V16.92C416.398 17.0731 417.473 17.4111 418.47 17.92C419.394 18.3805 420.224 19.0077 420.92 19.77C421.611 20.5312 422.145 21.4216 422.49 22.39C422.862 23.4154 423.049 24.4991 423.04 25.59C423.1 27.2331 422.683 28.8585 421.84 30.27C421.053 31.4963 419.991 32.5233 418.74 33.27C417.422 34.0612 415.978 34.6194 414.47 34.92C412.915 35.2489 411.33 35.4165 409.74 35.42H395.24V1.13197e-05ZM403 14.15H408.65C409.249 14.1489 409.846 14.0818 410.43 13.95C410.988 13.8288 411.52 13.6087 412 13.3C412.471 13.0007 412.859 12.5881 413.13 12.1C413.423 11.5463 413.568 10.9262 413.55 10.3C413.578 9.6601 413.414 9.02643 413.08 8.48001C412.773 8.00497 412.349 7.61607 411.85 7.35001C411.317 7.06912 410.743 6.87342 410.15 6.77001C409.539 6.66026 408.92 6.60339 408.3 6.60001H403V14.15ZM403 28.8H410C410.615 28.7967 411.229 28.7297 411.83 28.6C412.426 28.4752 412.993 28.2376 413.5 27.9C414.003 27.5651 414.423 27.1207 414.73 26.6C415.072 25.9909 415.235 25.2976 415.2 24.6C415.229 23.8819 415.01 23.1757 414.58 22.6C414.156 22.0919 413.614 21.6968 413 21.45C412.361 21.1788 411.688 20.9938 411 20.9C410.321 20.8036 409.636 20.7535 408.95 20.75H403V28.8ZM204 35.33H205C209.684 35.33 214.176 33.4694 217.488 30.1575C220.799 26.8456 222.66 22.3537 222.66 17.67C222.66 12.9854 220.8 8.49245 217.488 5.17897C214.177 1.86549 209.685 0.0026625 205 1.13197e-05H204.09C201.768 -0.00261702 199.468 0.452492 197.322 1.33932C195.176 2.22614 193.225 3.52729 191.582 5.16836C189.94 6.80943 188.636 8.75825 187.747 10.9034C186.858 13.0485 186.4 15.3479 186.4 17.67C186.4 22.3537 188.261 26.8456 191.572 30.1575C194.884 33.4694 199.376 35.33 204.06 35.33H204ZM10.1 6.90001H0V1.13197e-05H28V6.90001H17.9V35.4H10.1V6.90001ZM39 1.13197e-05H46.8V13.2H61.9V1.13197e-05H69.7V35.4H61.9V20.1H46.75V35.4H39V1.13197e-05ZM80.2 1.13197e-05H104.2V7.20001H88V13.8H103.35V21H88V28.2H105.15V35.4H80.15L80.2 1.13197e-05ZM135.2 1.13197e-05H147L155.15 23.1H155.25L163.45 1.13197e-05H175.2V35.4H167.4V8.25001H167.3L158 35.4H152.05L143.05 8.25001H143V35.4H135.2V1.13197e-05Z" fill="url(#paint0_linear_1_1520)"/>
</g>
<defs>
<linearGradient id="paint0_linear_1_1520" x1="0" y1="17.7" x2="423.04" y2="17.7" gradientUnits="userSpaceOnUse">
<stop stop-color="#90CEA1"/>
<stop offset="0.56" stop-color="#3CBEC9"/>
<stop offset="1" stop-color="#00B3E5"/>
</linearGradient>
<clipPath id="clip0_1_1520">
<rect width="423.04" height="35.4" fill="white"/>
</clipPath>
</defs>
</svg>
